<?xml version="1.0" standalone="no"?>
<!DOCTYPE svg PUBLIC "-//W3C//DTD SVG 20010904//EN"
 "http://www.w3.org/TR/2001/REC-SVG-20010904/DTD/svg10.dtd">
<svg version="1.0" xmlns="http://www.w3.org/2000/svg"
 width="200.000000pt" height="200.000000pt" viewBox="0 0 200.000000 200.000000"
 preserveAspectRatio="xMidYMid meet">
<metadata>
Created by potrace 1.14, written by Peter Selinger 2001-2017
</metadata>
<g transform="translate(0.000000,200.000000) scale(0.100000,-0.100000)"
fill="#000000" stroke="none">
<path d="M140 1938 c0 -35 -3 -80 -6 -100 l-7 -38 76 0 c66 0 75 2 80 19 7 27
0 31 -46 31 l-40 0 6 75 5 75 -34 0 -34 0 0 -62z"/seiu-website/>
<path d="M353 1990 c-57 -23 -74 -114 -29 -159 23 -22 35 -26 85 -26 49 0 64
4 85 24 49 46 42 127 -15 156 -31 16 -92 19 -126 5z m85 -46 c24 -17 30 -62
10 -82 -7 -7 -24 -12 -38 -12 -33 0 -50 17 -50 51 0 24 30 59 50 59 3 0 16 -7
28 -16z"/seiu-website/>
<path d="M610 1993 c-53 -20 -81 -83 -60 -134 19 -44 55 -58 148 -58 79 0 80
1 92 30 10 24 18 29 45 29 28 0 35 -5 44 -30 8 -24 16 -30 40 -30 38 0 38 3
-3 110 -31 84 -32 85 -68 88 l-36 3 -49 -93 c-29 -56 -49 -86 -51 -75 -3 12
-13 17 -41 17 -44 0 -61 14 -61 51 0 36 24 54 72 53 34 -1 39 1 36 20 -2 17
-10 21 -48 23 -25 1 -52 -1 -60 -4z m243 -73 c4 -15 0 -20 -14 -20 -17 0 -18
3 -9 20 6 11 12 20 14 20 2 0 6 -9 9 -20z"/seiu-website/>
<path d="M970 1946 c0 -29 -3 -74 -6 -100 l-7 -46 77 0 c74 0 76 1 76 25 0 23
-4 25 -40 25 l-40 0 0 75 0 75 -30 0 c-30 0 -30 -1 -30 -54z"/seiu-website/>
<path d="M1268 1986 c-23 -17 -25 -61 -2 -52 14 5 16 -3 13 -61 -4 -68 -4 -68
24 -71 33 -4 34 -1 40 111 l5 87 -32 0 c-17 0 -39 -7 -48 -14z"/seiu-website/>
<path d="M1408 1986 c-23 -17 -25 -61 -2 -52 13 5 15 -4 13 -62 l-3 -67 32 -3
32 -3 0 54 c0 30 3 75 6 101 l7 46 -34 0 c-19 0 -42 -7 -51 -14z"/seiu-website/>
<path d="M1571 1983 c-43 -35 -45 -137 -4 -169 22 -17 73 -17 94 -1 43 33 54
132 19 167 -25 25 -80 26 -109 3z m67 -75 c2 -31 -2 -49 -12 -57 -23 -19 -38
26 -25 74 14 48 33 40 37 -17z"/seiu-website/>
<path d="M1740 1975 c0 -22 4 -25 35 -25 19 0 35 -2 35 -5 0 -3 -15 -34 -32
-68 -18 -34 -34 -65 -36 -69 -2 -5 14 -8 35 -8 38 0 39 1 76 75 20 42 37 87
37 100 0 24 -2 25 -75 25 -73 0 -75 -1 -75 -25z"/seiu-website/>
<path d="M130 1509 c0 -197 1 -211 18 -206 9 3 54 19 99 36 156 57 440 105
808 136 176 14 525 35 615 35 60 1 47 7 -158 70 -96 30 -170 56 -165 57 4 1
91 -13 193 -31 102 -19 186 -33 187 -32 1 1 -28 34 -65 74 l-67 73 -732 -1
-733 0 0 -211z"/seiu-website/>
<path d="M1697 1673 c32 -25 64 -51 71 -56 9 -7 12 3 12 47 l0 56 -71 0 -71 0
59 -47z"/seiu-website/>
<path d="M1816 1688 c3 -18 10 -42 14 -53 7 -18 9 -18 19 8 6 15 14 39 17 52
6 23 3 25 -26 25 -30 0 -31 -1 -24 -32z"/seiu-website/>
<path d="M1550 1468 c-550 -64 -831 -153 -780 -248 37 -69 200 -139 490 -211
170 -42 555 -119 596 -119 12 0 14 37 13 238 l-1 237 -27 -125 -26 -125 -3
138 c-1 75 -6 137 -10 137 -4 -1 -31 -37 -61 -80 -30 -44 -55 -80 -57 -80 -1
0 12 45 31 100 19 55 32 100 31 100 -3 0 -201 -81 -278 -114 -21 -9 -38 -14
-38 -12 0 2 57 38 128 80 159 95 157 94 152 99 -3 2 -75 -5 -160 -15z"/seiu-website/>
<path d="M130 976 l0 -86 568 1 c388 1 539 4 477 10 -637 61 -782 83 -1022
155 -23 6 -23 5 -23 -80z"/seiu-website/>
<path d="M1700 808 c-5 -13 -23 -78 -40 -145 -17 -67 -35 -134 -42 -148 -21
-47 -100 -70 -149 -45 -28 15 -24 71 14 223 l33 127 -83 0 -82 0 -10 -37 c-43
-163 -71 -286 -71 -310 0 -61 55 -101 155 -113 136 -16 289 25 335 91 22 29
113 363 102 373 -3 3 -38 6 -79 6 -67 0 -74 -2 -83 -22z"/seiu-website/>
<path d="M233 795 c-75 -38 -107 -97 -83 -154 6 -16 40 -54 76 -86 35 -31 64
-60 64 -65 0 -37 -98 -54 -169 -29 -18 6 -35 9 -38 5 -3 -3 -8 -28 -11 -54 -5
-60 -1 -62 138 -62 114 0 186 27 220 82 42 69 24 116 -72 192 -52 41 -61 69
-27 87 22 11 119 8 150 -5 13 -6 17 2 22 46 5 36 3 54 -6 60 -6 4 -57 8 -113
8 -87 0 -107 -3 -151 -25z"/seiu-website/>
<path d="M556 595 c-31 -124 -56 -227 -56 -230 0 -3 88 -5 195 -5 l194 0 10
38 c18 64 23 62 -115 62 -137 0 -127 -5 -109 58 6 21 11 22 115 22 l108 0 6
36 c4 19 10 42 13 50 4 12 -13 14 -101 14 -115 0 -115 0 -100 58 6 21 10 22
135 22 l128 0 10 38 c19 65 29 62 -183 62 l-194 0 -56 -225z"/seiu-website/>
<path d="M1030 603 c-29 -120 -55 -224 -58 -230 -3 -10 17 -13 80 -13 l83 0
54 218 c30 119 56 223 59 230 3 9 -17 12 -80 12 l-85 0 -53 -217z"/seiu-website/>
<path d="M115 270 c-2 -3 -6 -65 -10 -138 l-8 -132 41 0 41 0 3 81 3 81 46
-79 45 -78 52 -3 52 -3 1 43 c0 24 4 85 7 136 l7 92 -42 0 -42 0 -3 -82 -3
-83 -43 82 -43 81 -51 4 c-27 1 -51 1 -53 -2z"/seiu-website/>
<path d="M444 137 l-9 -137 113 0 112 0 0 30 0 30 -65 0 c-63 0 -65 1 -65 25
0 24 3 25 54 25 47 0 54 3 60 23 3 12 6 25 6 30 0 4 -27 7 -61 7 -52 0 -60 2
-57 18 3 14 16 18 71 20 67 3 67 3 67 32 l0 29 -109 3 -109 3 -8 -138z"/seiu-website/>
<path d="M725 272 l-41 -3 46 -134 45 -135 50 0 50 0 68 135 c37 74 67 136 67
138 0 2 -21 0 -46 -3 l-47 -5 -41 -93 -41 -93 -31 96 c-17 52 -33 96 -35 98
-2 1 -22 1 -44 -1z"/seiu-website/>
<path d="M1022 146 c-37 -72 -68 -134 -70 -138 -2 -5 17 -8 42 -8 43 0 47 2
66 40 19 38 23 40 66 40 44 0 46 -1 61 -40 15 -38 18 -40 60 -40 23 0 43 2 43
4 0 4 -92 259 -95 263 -1 2 -25 4 -53 6 l-53 4 -67 -131z m116 -4 c-27 -5 -30
1 -17 34 l11 29 13 -30 c12 -27 12 -30 -7 -33z"/seiu-website/>
<path d="M1721 270 c-7 -5 -141 -257 -141 -265 0 -3 20 -5 45 -5 42 0 46 2 65
41 20 39 22 40 67 37 43 -3 47 -5 58 -38 11 -33 15 -35 58 -38 26 -2 47 -2 47
0 0 2 -22 63 -49 137 l-49 134 -47 1 c-26 0 -50 -1 -54 -4z m47 -128 c-28 -5
-33 4 -18 35 l13 28 12 -30 c12 -27 12 -30 -7 -33z"/seiu-website/>
<path d="M1310 158 c0 -62 -3 -123 -6 -135 -6 -23 -5 -23 86 -23 115 0 155 16
181 74 22 49 24 85 5 130 -23 56 -47 66 -163 66 l-103 0 0 -112z m176 27 c34
-53 -5 -125 -68 -125 -31 0 -33 6 -22 98 7 51 7 52 40 52 25 0 38 -7 50 -25z"/seiu-website/>
</g>
</svg>
